# xmcd
#
# Track frame offsets: 
#        150
#        12446
#        20532
#        32765
#        41706
#        52037
#        63135
#        73149
#        82281
#        87853
#        99501
#        109658
#
# Disc length: 1597 seconds
#
# Revision: 0
# Processed by: cddbd v1.5.2PL0 Copyright (c) Steve Scherf et al.
# Submitted via: ExactAudioCopy v1.0b3
#
DISCID=9f063b0c
DTITLE=Johnny Cash - Folsom Prison Blues CD2
DYEAR=2009
DGENRE=Blues
TTITLE0=I Walk The Line
TTITLE1=The Wreck Of The Old '97
TTITLE2=Next In Line
TTITLE3=Remember Me (I'm The One Who Loves You)
TTITLE4=You Win Again
TTITLE5=Cry! Cry! Cry!
TTITLE6=Hey Porter
TTITLE7=I Couldn't Keep From Crying
TTITLE8=My Treasure
TTITLE9=So Doggone Lonesome
TTITLE10=There You Go
TTITLE11=Train Of Love
EXTD=
EXTT0=
EXTT1=
EXTT2=
EXTT3=
EXTT4=
EXTT5=
EXTT6=
EXTT7=
EXTT8=
EXTT9=
EXTT10=
EXTT11=
PLAYORDER=
